<?xml version="1.0" encoding="utf-8"?>
<svg version="1.1" id="Layer_1" xmlns="http://www.w3.org/2000/svg" x="0px" y="0px" width="1024px" viewBox="0 0 1024 1024" enable-background="new 0 0 1024 1024" xmlns:bx="https://boxy-svg.com" height="1024px"><defs><bx:export><bx:file format="svg"/></bx:export></defs><path fill="#FEFFFF" opacity="1.000000" stroke="none" d=" M852.334045,690.969482 C847.813416,707.870239 837.833069,720.528137 822.782166,729.364380 C749.792175,772.216125 676.833923,815.121826 603.846375,857.977661 C584.241577,869.488892 564.566162,880.879578 544.936340,892.348328 C524.191162,904.468689 503.479095,904.527771 482.711151,892.369324 C417.543213,854.217041 352.354004,816.101257 287.181824,777.956299 C260.253693,762.195374 233.365921,746.365356 206.425110,730.626160 C190.498566,721.321594 178.071869,709.161926 173.723633,690.516785 C172.715317,686.193237 172.102875,681.668396 172.099091,677.235474 C172.007019,569.070984 172.066681,460.906433 171.983475,352.741974 C171.964905,328.599976 182.764313,310.551178 202.933685,298.301331 C232.576355,280.297913 262.606628,262.931915 292.500580,245.343307 C355.306061,208.390671 418.161896,171.523560 480.928986,134.505875 C501.800171,122.196854 522.485657,121.601189 543.544556,133.989349 C607.918274,171.857895 672.352539,209.623566 736.772522,247.413483 C765.551270,264.295624 794.434937,281.000916 823.108826,298.059021 C838.011597,306.924683 847.939636,319.845642 852.524414,337.550385 C853.259521,344.504974 853.704285,350.747223 854.149048,356.989441 C854.101379,357.440521 854.053711,357.891602 854.013794,359.141937 C854.064941,398.622284 854.108337,437.303375 854.151733,475.984467 C854.102783,477.383911 854.053894,478.783356 854.012817,481.056580 C854.063965,485.948303 854.107300,489.966309 854.150696,493.984283 C854.101624,494.744202 854.052551,495.504150 854.013977,497.103821 C854.066284,511.957611 854.108093,525.971680 854.149963,539.985718 C854.100830,541.062622 854.051697,542.139526 854.012695,544.079712 C854.013794,588.876587 854.054993,632.810303 853.922729,676.743591 C853.908447,681.487122 852.887878,686.227600 852.334045,690.969482 M812.982361,348.266846 C811.973328,340.129059 806.463257,335.602020 799.942078,331.774994 C708.772339,278.270508 617.595581,224.777863 526.495667,171.154755 C517.979858,166.142212 510.235626,165.344528 501.446228,170.772705 C485.492279,180.625610 469.084930,189.742081 452.914093,199.246414 C377.096710,243.807678 301.329834,288.455139 225.444229,332.899902 C216.087418,338.380005 212.115067,345.992889 212.129303,356.614990 C212.233917,434.597565 212.181046,512.580322 212.175629,590.563049 C212.173828,616.557190 212.084839,642.551636 212.197296,668.545227 C212.247513,680.151672 215.292404,690.080261 227.372040,695.148315 C232.532425,697.313416 237.186310,700.692017 242.054611,703.546021 C328.971710,754.499084 415.915009,805.407715 502.749817,856.500671 C510.048370,860.795105 516.751343,860.973633 523.822205,856.848572 C531.707153,852.248535 539.542908,847.564209 547.407532,842.929138 C604.886536,809.053162 662.357422,775.163391 719.852112,741.313965 C747.314026,725.145935 774.830872,709.071411 802.300842,692.916931 C806.965393,690.173828 811.087524,686.896790 812.078979,680.171509 C812.403381,676.386719 813.008728,672.602173 813.010986,668.817200 C813.063354,581.872559 813.061157,494.927948 813.040527,407.983307 C813.035828,388.333679 812.924561,368.684021 812.982361,348.266846 z"/><path fill="#FEFFFF" opacity="1.000000" stroke="none" d=" M363.850159,413.013458 C354.211456,402.897003 346.720673,391.546509 343.524414,377.717133 C335.509521,343.038483 351.935059,304.828033 386.820923,292.501190 C410.483154,284.140137 433.238831,287.959198 454.807098,300.156433 C472.496460,310.160004 485.963409,325.000427 499.606995,339.593872 C508.364807,348.961365 516.820740,358.610565 525.487366,368.064392 C526.809082,369.506165 528.414490,370.784241 530.099243,371.782806 C573.366089,397.427490 616.641235,423.058380 660.011902,448.526611 C662.071045,449.735779 665.099365,450.048370 667.541809,449.733826 C690.278625,446.805664 710.927246,451.779419 728.558960,466.572479 C747.191101,482.204773 754.921631,502.755737 751.261475,526.618408 C745.756775,562.506042 723.196167,584.645630 689.944763,595.630981 C673.887512,600.935852 656.660278,602.741516 639.923279,605.923523 C634.060669,607.038208 628.040588,607.317566 622.169861,608.399048 C619.324463,608.923157 616.448669,610.060547 613.941467,611.526978 C572.391846,635.828308 530.918762,660.260681 489.357513,684.541931 C485.747253,686.651123 483.426147,689.128540 481.836761,693.145447 C469.322113,724.773926 440.387146,744.479614 407.828674,743.911255 C372.980316,743.302979 343.477051,716.745361 338.890167,682.456726 C336.078369,661.437012 340.368896,641.450195 346.760193,621.800232 C351.920349,605.935425 358.068756,590.392029 363.886108,573.881409 C364.032166,530.335083 364.089569,487.613434 364.096466,444.891815 C364.098206,434.265686 363.936646,423.639587 363.850159,413.013458 M405.087036,539.500000 C405.085876,545.496948 405.381348,551.513733 404.982788,557.484131 C404.700928,561.705872 406.287384,564.031372 409.735138,566.300903 C439.362793,585.803650 465.386353,608.773804 480.696136,641.993530 C514.508911,622.047363 548.100464,602.278748 581.576477,582.316589 C582.947327,581.499146 583.931030,578.857971 583.918396,577.074829 C583.774780,556.820251 587.150574,537.139282 592.962463,517.802795 C598.095032,500.726105 607.704468,486.378601 619.854980,473.592773 C619.463562,473.231018 619.250610,472.953094 618.971069,472.787354 C586.152832,453.330658 553.348633,433.850128 520.443665,414.541321 C519.001343,413.695007 516.366882,413.812592 514.741699,414.521667 C505.180237,418.693085 495.896942,423.523438 486.250916,427.475128 C467.563080,435.130890 448.198853,440.214081 427.824036,439.755951 C420.421448,439.589478 413.046661,438.187622 405.087189,437.284576 C405.087189,470.987061 405.087189,504.743530 405.087036,539.500000 M384.300903,372.916595 C389.936310,383.909973 398.845642,391.325134 410.103119,395.920776 C421.971802,400.765900 434.117981,399.529968 446.334961,397.142670 C459.719238,394.527313 472.361969,390.042175 485.399750,383.066345 C471.902679,369.125427 458.960144,355.524231 445.740387,342.197968 C438.787933,335.189484 430.214478,330.648132 420.378448,329.423340 C409.148193,328.024933 397.868286,328.914398 390.292969,338.480865 C382.527924,348.286896 379.709290,359.760742 384.300903,372.916595 M673.468994,558.050354 C689.616150,554.565796 701.468628,545.724670 708.232117,530.399475 C715.919617,512.980896 707.981384,494.397552 690.553772,490.435577 C680.429871,488.134003 670.321960,489.588745 661.050964,494.475677 C646.652649,502.065247 635.994141,513.037170 631.820068,529.217834 C628.658386,541.474365 625.885132,553.831116 622.939026,566.143188 C623.466125,566.536438 623.993225,566.929626 624.520325,567.322876 C640.560486,564.260620 656.600647,561.198303 673.468994,558.050354 M377.990875,664.745789 C378.324036,668.864441 378.029663,673.156799 379.112152,677.068054 C381.961395,687.362976 386.351196,696.814819 397.443420,700.814331 C410.443207,705.501831 428.112793,701.247314 436.413300,691.579834 C446.640381,679.668579 448.111755,665.289368 439.662445,651.038391 C428.679169,632.513428 412.942902,618.343445 396.017639,604.799866 C387.808685,624.188721 380.812836,643.360168 377.990875,664.745789 z"/></svg>